# xmcd
#
# Track frame offsets: 
#        183
#        12513
#        25958
#        38543
#        53273
#        63495
#        77083
#        89930
#        101743
#        113623
#        126523
#        139253
#        151978
#        163005
#        174723
#        185960
#        196465
#        208010
#
# Disc length: 3004 seconds
#
# Revision: 4
# Processed by: cddbd v1.5.2PL0 Copyright (c) Steve Scherf et al.
# Submitted via: ExactAudioCopy v0.95b4
#
DISCID=030bba12
DTITLE=John Lee Hooker - Boogie Chillen
DYEAR=1993
DGENRE=Blues
TTITLE0=High Priced Woman (April 1951)
TTITLE1=Ground Hog Blues (April 1951)
TTITLE2=Walkin' The Boogie (June 1952)
TTITLE3=Sugar Mama (June 1952)
TTITLE4=Dimpless (19 October 1955)
TTITLE5=Time Is Marching (19 October 1955)
TTITLE6=I'm So Excited (1 March 1957)
TTITLE7=Little Wheel (23 June 1957)
TTITLE8=I Love You Honey (10 June 1958)
TTITLE9=Hobo Blues (22 January 1959)
TTITLE10=Crawling King Snake Blues (22 January 1959)
TTITLE11=I'm In The Mood (22 January 1959)
TTITLE12=Maudie (22 January 1959)
TTITLE13=Boogie Chillen (22 January 1959)
TTITLE14=No Shoes (1 March 1960)
TTITLE15=Dusty Road (1 March 1960)
TTITLE16=Boom Boom (1961)
TTITLE17=Blues Before Sunrise (1961)
EXTD=
EXTT0=
EXTT1=
EXTT2=
EXTT3=
EXTT4=
EXTT5=
EXTT6=
EXTT7=
EXTT8=
EXTT9=
EXTT10=
EXTT11=
EXTT12=
EXTT13=
EXTT14=
EXTT15=
EXTT16=
EXTT17=
PLAYORDER=
